<?xml version="1.0" encoding="UTF-8"?><svg id="_2" xmlns="http://www.w3.org/2000/svg" width="3490.45" height="2300" viewBox="0 0 3490.45 2300"><path d="M763.81,1973.21c-184.34-36.99-359.68-99.64-498.71-237.3-112.49-111.38-185.44-260.65-210.38-416.98-32.05-200.89,18.54-412.1,131.76-580.37,98.95-147.08,246.96-250.69,404.59-325.74,195.12-92.91,383.6-194.8,587.26-269.14C1549.5,8.2,1947.84-27.61,2339.15,20.04c226.38,27.57,453.39,95.24,632.8,241.11,51.41,41.8,98.12,89.25,139.23,141.19,292.34,369.34,297.9,958.9-15.33,1317.91-86.46,99.11-196.76,176.76-316.49,230.46-266.38,119.46-569.61,125.91-856.35,113.5-324.88-14.06-653.84-17.36-976.42-61.24-61.25-8.33-122.5-17.68-182.78-29.78Z" fill="#94a1b2"/><g><circle cx="2323.75" cy="1299.53" r="543.27" fill="#7f5af0"/><path d="M2795.63,1299.53c0,260.61-211.26,471.88-471.88,471.88-101.37,0-195.25-31.96-272.16-86.34,65.8,34.82,140.82,54.54,220.44,54.54,260.61,0,471.88-211.28,471.88-471.89,0-159.23-78.85-300.03-199.65-385.5,149.51,79.18,251.37,236.35,251.37,417.31Z" fill="#16161a"/><path d="M2743.91,1267.72c0,260.61-211.26,471.89-471.88,471.89-79.62,0-154.64-19.72-220.44-54.54-120.84-85.46-199.73-226.29-199.73-385.53,0-260.61,211.28-471.89,471.89-471.89,79.65,0,154.7,19.73,220.51,54.58,120.8,85.47,199.65,226.27,199.65,385.5Z" fill="#fff"/><path d="M2304.29,885.76c-.79,11.94-.52,23.77-.32,35.73,.09,5.63,.39,11.24,.72,16.87,.37,6.48,1.19,13.91,6.51,18.41,3.27,2.76,7.77,3.12,11.01,0,4.65-4.46,5.72-11.28,5.66-17.42s-.12-11.91-.42-17.86c-.6-11.98-1.12-23.83-2.7-35.73-.73-5.48-4.18-10.23-10.23-10.23s-9.87,4.7-10.23,10.23h0Z" fill="#72757e"/><path d="M2324.55,1637.46c-1.87,12.68-1.95,25.58-1.78,38.38,.08,6.21,0,12.7,1.01,18.84,1.08,6.58,.96,14.72,7.64,18.18,3.72,1.93,7.16,1.14,10.3-1.33,5.32-4.19,3.92-11.84,4.06-17.87s-.43-11.89-.68-17.82c-.49-11.89,.02-23.8-.57-35.67-.25-5.03-3.67-9.38-8.82-9.99-4.5-.54-10.41,2.22-11.16,7.28h0Z" fill="#72757e"/><path d="M2640.69,1300.09c-2.73-1.99,2.46,2.56,2.48,2.57,1.24,.86,2.45,1.57,3.9,2.05,3.76,1.24,7.83,1.37,11.75,1.69,6.97,.57,13.93,.69,20.93,.83s13.28,.27,19.93,.3c7.69,.03,16.21,.07,22.65-4.84,5.93-4.53,5.93-11.59,0-16.12s-14.3-4.88-21.65-4.85-13.95,.16-20.93,.3-13.29,.21-19.93,.75c-3.93,.32-8,.41-11.81,1.54-1.81,.54-3.27,1.21-4.84,2.29-.6,.41-5.28,4.61-2.48,2.57-4.03,2.93-4.03,7.96,0,10.89h0Z" fill="#72757e"/><path d="M2328.85,1293.91c26.29-30.9,53.03-61.42,79.48-92.19,26.48-30.81,53.24-61.38,80.34-91.66,7.74-8.65,15.49-17.3,23.21-25.98,7.47-8.39,16.46-16.44,20.65-27.05,1.96-4.96-4.36-8.43-8.32-6.4-9.01,4.64-15.43,13.55-22.09,20.95s-13.34,14.91-19.92,22.44c-13.38,15.32-26.67,30.71-39.87,46.17-26.41,30.93-52.76,62.01-77.78,94.08-14.15,18.15-28.28,36.28-42.27,54.56-2.87,3.75,3.5,8.68,6.57,5.07h0Z" fill="#72757e"/><path d="M2318.76,1301.59c25.28,28.97,53.05,55.77,81.19,81.95,28.22,26.26,57.6,50.99,87.84,74.88,16.79,13.26,33.64,27.25,52.12,38.1,3.69,2.17,7.72-2.93,4.6-5.96-13.68-13.33-29.12-24.99-43.78-37.22-14.52-12.11-28.57-24.72-42.91-37.03-28.95-24.85-57.19-50.54-85.01-76.65-15.84-14.87-31.38-30.03-47.32-44.79-4.53-4.2-10.75,2.13-6.74,6.74h0Z" fill="#72757e"/></g><g><g><rect x="183.19" y="159.96" width="2051.58" height="1260.98" fill="#fff"/><path d="M2228.86,165.86V1415.03H189.09V165.86h2039.77m11.81-11.81H177.28V1426.84H2240.67V154.05h0Z" fill="#16161a"/></g><rect x="177.28" y="154.05" width="2063.39" height="90.1" fill="#16161a"/><circle cx="248.94" cy="198.78" r="18.03" fill="#fff"/><circle cx="299.42" cy="198.78" r="18.03" fill="#fff"/><circle cx="349.9" cy="198.78" r="18.03" fill="#fff"/><g><rect x="753.37" y="436.56" width="976.2" height="26.32" rx="12.59" ry="12.59" fill="#2cb67d"/><rect x="753.37" y="499.78" width="126.76" height="26.32" rx="12.59" ry="12.59" fill="#2cb67d"/><rect x="753.37" y="551.27" width="126.76" height="26.32" rx="12.59" ry="12.59" fill="#2cb67d"/><rect x="753.37" y="602.76" width="126.76" height="26.32" rx="12.59" ry="12.59" fill="#2cb67d"/><rect x="753.37" y="654.24" width="126.76" height="26.32" rx="12.59" ry="12.59" fill="#2cb67d"/><rect x="753.37" y="705.73" width="126.76" height="26.32" rx="12.59" ry="12.59" fill="#2cb67d"/><rect x="753.37" y="757.21" width="126.76" height="26.32" rx="12.59" ry="12.59" fill="#2cb67d"/><rect x="753.37" y="808.7" width="126.76" height="26.32" rx="12.59" ry="12.59" fill="#2cb67d"/><rect x="753.37" y="860.18" width="126.76" height="26.32" rx="12.59" ry="12.59" fill="#2cb67d"/><rect x="916.36" y="499.78" width="506.3" height="26.32" rx="9.07" ry="9.07" fill="#3da9fc"/><rect x="916.36" y="551.27" width="543.58" height="26.32" rx="9.39" ry="9.39" fill="#3da9fc"/><rect x="916.36" y="602.76" width="703.29" height="26.32" rx="10.68" ry="10.68" fill="#3da9fc"/><rect x="1422.66" y="654.24" width="703.29" height="26.32" rx="10.68" ry="10.68" fill="#2cb67d"/><rect x="916.36" y="654.24" width="478.31" height="26.32" rx="8.81" ry="8.81" fill="#3da9fc"/><rect x="916.36" y="705.73" width="821.44" height="26.32" rx="11.55" ry="11.55" fill="#3da9fc"/><rect x="916.36" y="757.21" width="532.93" height="26.32" rx="9.3" ry="9.3" fill="#3da9fc"/><rect x="916.36" y="808.7" width="729.89" height="26.32" rx="10.88" ry="10.88" fill="#3da9fc"/><rect x="916.36" y="860.18" width="452.97" height="26.32" rx="8.57" ry="8.57" fill="#3da9fc"/><rect x="1680.6" y="808.7" width="452.97" height="26.32" rx="8.57" ry="8.57" fill="#3da9fc"/><rect x="1454.53" y="499.78" width="205.49" height="26.32" rx="5.78" ry="5.78" fill="#7f5af0"/><rect x="1254.46" y="922.06" width="205.49" height="26.32" rx="5.78" ry="5.78" fill="#7f5af0"/><rect x="1720.86" y="922.06" width="205.49" height="26.32" rx="5.78" ry="5.78" fill="#7f5af0"/><g><path d="M833.71,325.64l-49.59,18.17,49.59,18.02v18.62l-70.89-26.95v-19.36l70.89-26.95v18.46Z" fill="#7f5af0"/><path d="M887.03,270.54h20.7l-49.15,140.29h-20.7l49.15-140.29Z" fill="#7f5af0"/><path d="M981.3,334.13v19.36l-70.89,26.95v-18.62l49.59-18.02-49.59-18.17v-18.46l70.89,26.95Z" fill="#7f5af0"/><path d="M999.62,392.96c-2.78-2.78-4.17-6.25-4.17-10.42s1.39-7.72,4.17-10.35c2.78-2.63,6.2-3.94,10.27-3.94s7.5,1.31,10.28,3.94c2.78,2.63,4.17,6.08,4.17,10.35s-1.39,7.65-4.17,10.42c-2.78,2.78-6.21,4.18-10.28,4.18s-7.5-1.39-10.27-4.18Z" fill="#7f5af0"/><path d="M1038.64,392.96c-2.78-2.78-4.17-6.25-4.17-10.42s1.39-7.72,4.17-10.35c2.78-2.63,6.2-3.94,10.27-3.94s7.5,1.31,10.28,3.94c2.78,2.63,4.17,6.08,4.17,10.35s-1.39,7.65-4.17,10.42c-2.78,2.78-6.21,4.18-10.28,4.18s-7.5-1.39-10.27-4.18Z" fill="#7f5af0"/><path d="M1077.66,392.96c-2.78-2.78-4.17-6.25-4.17-10.42s1.39-7.72,4.17-10.35c2.78-2.63,6.2-3.94,10.27-3.94s7.5,1.31,10.28,3.94c2.78,2.63,4.17,6.08,4.17,10.35s-1.39,7.65-4.17,10.42c-2.78,2.78-6.21,4.18-10.28,4.18s-7.5-1.39-10.27-4.18Z" fill="#7f5af0"/></g></g><g><rect x="248.94" y="304.28" width="458.06" height="291.04" fill="#1d0094"/><rect x="248.94" y="630.66" width="458.06" height="728.48" fill="#7f5af0"/><rect x="302.59" y="354.74" width="86.53" height="21.55" rx="10.31" ry="10.31" fill="#fff"/><g opacity=".57"><rect x="411.69" y="354.74" width="239.91" height="21.55" rx="10.31" ry="10.31" fill="#fff"/></g><g opacity=".36"><rect x="393.17" y="440.35" width="258.44" height="21.55" rx="10.31" ry="10.31" fill="#fff"/></g><g opacity=".57"><rect x="431.66" y="397.54" width="219.94" height="21.55" rx="9.87" ry="9.87" fill="#fff"/></g><g opacity=".57"><rect x="393.17" y="525.96" width="258.44" height="21.55" rx="10.31" ry="10.31" fill="#fff"/></g><g opacity=".57"><rect x="393.17" y="682.42" width="258.44" height="21.55" rx="10.31" ry="10.31" fill="#fff"/></g><g opacity=".57"><rect x="393.17" y="768.04" width="258.44" height="21.55" rx="10.31" ry="10.31" fill="#fff"/></g><g opacity=".37"><rect x="443.98" y="725.23" width="207.63" height="21.55" rx="9.24" ry="9.24" fill="#fff"/></g><g opacity=".37"><rect x="443.98" y="813.79" width="207.63" height="21.55" rx="9.24" ry="9.24" fill="#fff"/></g><g opacity=".61"><rect x="443.98" y="853.65" width="207.63" height="21.55" rx="9.24" ry="9.24" fill="#fff"/></g><g opacity=".61"><rect x="414.47" y="939.26" width="237.13" height="21.55" rx="9.87" ry="9.87" fill="#fff"/></g><g opacity=".61"><rect x="443.98" y="982.07" width="207.63" height="21.55" rx="9.24" ry="9.24" fill="#fff"/></g><g opacity=".61"><rect x="496.23" y="1024.88" width="155.38" height="21.55" rx="7.99" ry="7.99" fill="#fff"/></g><g opacity=".86"><rect x="400.04" y="1067.68" width="251.57" height="21.55" rx="10.17" ry="10.17" fill="#fff"/></g><g opacity=".61"><rect x="443.98" y="1110.49" width="207.63" height="21.55" rx="9.24" ry="9.24" fill="#fff"/></g><g opacity=".18"><rect x="403.98" y="1153.3" width="247.62" height="21.55" rx="10.09" ry="10.09" fill="#fff"/></g><g opacity=".61"><rect x="443.98" y="1196.1" width="207.63" height="21.55" rx="9.24" ry="9.24" fill="#fff"/></g><g opacity=".61"><rect x="409" y="1238.91" width="242.6" height="21.55" rx="9.99" ry="9.99" fill="#fff"/></g><g opacity=".96"><rect x="443.98" y="1281.72" width="207.63" height="21.55" rx="9.24" ry="9.24" fill="#fff"/></g><g opacity=".37"><rect x="414.47" y="893.51" width="237.13" height="21.55" rx="9.87" ry="9.87" fill="#fff"/></g><g opacity=".57"><rect x="431.66" y="483.16" width="219.94" height="21.55" rx="9.87" ry="9.87" fill="#fff"/></g><rect x="314.01" y="397.54" width="86.53" height="21.55" rx="10.31" ry="10.31" fill="#fff"/><rect x="281.39" y="440.35" width="86.53" height="21.55" rx="10.31" ry="10.31" fill="#fff"/><rect x="306.63" y="483.16" width="86.53" height="21.55" rx="10.31" ry="10.31" fill="#fff"/><rect x="281.39" y="525.96" width="86.53" height="21.55" rx="10.31" ry="10.31" fill="#fff"/><rect x="281.39" y="682.42" width="86.53" height="21.55" rx="10.31" ry="10.31" fill="#fff"/><rect x="306.63" y="725.23" width="86.53" height="21.55" rx="10.31" ry="10.31" fill="#fff"/><rect x="281.39" y="768.04" width="86.53" height="21.55" rx="10.31" ry="10.31" fill="#fff"/><rect x="281.39" y="810.84" width="86.53" height="21.55" rx="10.31" ry="10.31" fill="#fff"/><rect x="281.39" y="853.65" width="86.53" height="21.55" rx="10.31" ry="10.31" fill="#fff"/><rect x="306.63" y="896.46" width="86.53" height="21.55" rx="10.31" ry="10.31" fill="#fff"/><rect x="281.39" y="939.26" width="86.53" height="21.55" rx="10.31" ry="10.31" fill="#fff"/><rect x="281.39" y="982.07" width="86.53" height="21.55" rx="10.31" ry="10.31" fill="#fff"/><rect x="302.59" y="1024.88" width="86.53" height="21.55" rx="10.31" ry="10.31" fill="#fff"/><rect x="281.39" y="1067.68" width="86.53" height="21.55" rx="10.31" ry="10.31" fill="#fff"/><rect x="317.45" y="1110.49" width="86.53" height="21.55" rx="10.31" ry="10.31" fill="#fff"/><rect x="281.39" y="1153.3" width="86.53" height="21.55" rx="10.31" ry="10.31" fill="#fff"/><rect x="306.63" y="1196.1" width="86.53" height="21.55" rx="10.31" ry="10.31" fill="#fff"/><rect x="281.39" y="1238.91" width="86.53" height="21.55" rx="10.31" ry="10.31" fill="#fff"/><rect x="281.39" y="1281.72" width="86.53" height="21.55" rx="10.31" ry="10.31" fill="#fff"/></g><rect x="754.78" y="922.06" width="458.06" height="433.44" fill="none" stroke="#2cb67d" stroke-miterlimit="10" stroke-width="6.02"/><rect x="1760.8" y="437.52" width="372.77" height="178.39" fill="none" stroke="#2cb67d" stroke-miterlimit="10" stroke-width="3.48"/></g><g><rect y="1099.11" width="446.73" height="212.77" fill="#16161a"/><rect x="46.09" y="1142.73" width="446.73" height="212.77" fill="#16161a" opacity=".31"/><g><path d="M124.48,1176.94l-49.59,18.17,49.59,18.02v18.62l-70.89-26.95v-19.36l70.89-26.95v18.46Z" fill="#fff"/><path d="M177.79,1121.84h20.7l-49.15,140.29h-20.7l49.15-140.29Z" fill="#fff"/><path d="M272.07,1185.43v19.36l-70.89,26.95v-18.62l49.59-18.02-49.59-18.17v-18.46l70.89,26.95Z" fill="#fff"/><path d="M290.38,1244.25c-2.78-2.78-4.17-6.25-4.17-10.42s1.39-7.72,4.17-10.35c2.78-2.63,6.2-3.94,10.27-3.94s7.5,1.31,10.28,3.94c2.78,2.63,4.17,6.08,4.17,10.35s-1.39,7.65-4.17,10.42c-2.78,2.78-6.21,4.18-10.28,4.18s-7.5-1.39-10.27-4.18Z" fill="#fff"/><path d="M329.4,1244.25c-2.78-2.78-4.17-6.25-4.17-10.42s1.39-7.72,4.17-10.35c2.78-2.63,6.2-3.94,10.27-3.94s7.5,1.31,10.28,3.94c2.78,2.63,4.17,6.08,4.17,10.35s-1.39,7.65-4.17,10.42c-2.78,2.78-6.21,4.18-10.28,4.18s-7.5-1.39-10.27-4.18Z" fill="#fff"/><path d="M368.42,1244.25c-2.78-2.78-4.17-6.25-4.17-10.42s1.39-7.72,4.17-10.35c2.78-2.63,6.2-3.94,10.27-3.94s7.5,1.31,10.28,3.94c2.78,2.63,4.17,6.08,4.17,10.35s-1.39,7.65-4.17,10.42c-2.78,2.78-6.21,4.18-10.28,4.18s-7.5-1.39-10.27-4.18Z" fill="#fff"/></g></g><g><rect x="2478.88" y="154.05" width="261.32" height="212.77" fill="#16161a"/><rect x="2505.84" y="197.67" width="261.32" height="212.77" fill="#16161a" opacity=".31"/><g><path d="M2583.86,256.32c-1.22,1.91-3.16,3.28-5.82,4.11,2.66,.84,4.6,2.21,5.82,4.11,1.22,1.91,1.83,4.8,1.83,8.69v18.28c0,2.74,.71,4.84,2.11,6.29,1.41,1.45,3.49,2.17,6.23,2.17h2.06v13.94h-6.62c-7.09,0-12.46-1.75-16.11-5.26s-5.49-8.57-5.49-15.19v-20.69c0-1.75-.44-3.08-1.31-4-.87-.91-2.11-1.37-3.72-1.37h-3.77v-13.94h3.77c1.61,0,2.85-.46,3.72-1.37,.87-.91,1.31-2.25,1.31-4v-20.68c0-6.63,1.83-11.69,5.49-15.2,3.65-3.5,9.03-5.25,16.11-5.25h6.62v13.94h-2.06c-2.74,0-4.82,.73-6.23,2.17-1.4,1.45-2.11,3.54-2.11,6.29v18.28c0,3.88-.61,6.78-1.83,8.68Z" fill="#fff"/><path d="M2668.88,253.46v13.94h-3.78c-1.6,0-2.84,.46-3.71,1.37-.88,.92-1.32,2.25-1.32,4v20.69c0,6.63-1.82,11.69-5.48,15.19-3.66,3.51-9.03,5.26-16.11,5.26h-6.63v-13.94h2.06c2.73,0,4.82-.72,6.22-2.17,1.41-1.45,2.12-3.54,2.12-6.29v-18.28c0-3.89,.6-6.78,1.82-8.69,1.22-1.9,3.16-3.27,5.83-4.11-2.67-.84-4.61-2.21-5.83-4.11-1.22-1.9-1.82-4.8-1.82-8.68v-18.28c0-2.74-.71-4.84-2.12-6.29-1.4-1.45-3.49-2.17-6.22-2.17h-2.06v-13.94h6.63c7.09,0,12.45,1.75,16.11,5.25,3.65,3.51,5.48,8.57,5.48,15.2v20.68c0,1.75,.44,3.09,1.32,4,.87,.92,2.11,1.37,3.71,1.37h3.78Z" fill="#fff"/></g></g><g><path d="M1449.32,1071.22s35.37,229.59,21.29,263.16c-14.08,33.57,409.47-10.53,409.47-10.53,0,0-33.6-243.96-75.88-299.2-42.28-55.23-354.88,46.57-354.88,46.57Z" fill="#230000"/><path d="M1783.37,1093.62l74.14,272.17s-75.01,54.15-102.09,9.75c-27.07-44.4-60.86-286.26,27.94-281.91Z" fill="#230000"/><path d="M1636.74,1426.51c-77.72-8.25-96.29-23.39-100.42-65.33-4.12-41.96,33.01-95.6,33.01-95.6l158.19-73.59s5.49,60.53,23.37,66.71c5.1,1.77,11.42,3.3,17.92,4.82,9.69,2.24,19.74,4.42,26.68,7.16,4.73,1.87,8,3.99,8.71,6.59,2.41,8.95-89.75,157.51-167.46,149.25Z" fill="#c69c6d"/><path d="M1753.16,1330.76c-18.77,16.11-38.87,30.67-60.06,43.46-21.91,13.24-44.75,25.96-70.83,27.78-24.04,1.67-48.41-8.13-61.41-29.02-13.76-22.14-13.43-46.66-7.15-71.17,1.66-6.46,19.91-5.85,19.74,1.54-.5,22.1,.42,47.63,15.56,65.23,26.7,31.06,74.57-2.51,99.63-19.08,17.19-11.38,33.6-23.95,49.06-37.59,7.11-6.28,14.44-12.62,20.57-19.9,6.65-7.91,9.2-15.31,9.81-25.49,.06-1.1,.32-2.1,.73-3.02,9.69,2.24,19.74,4.42,26.68,7.16,1.49,24.78-25.67,45.77-42.34,60.08Z" fill="#603813"/><path d="M1737.35,1199.14c-2.58-7.87-10.2-11.6-18.15-11.49-.51,0-1,.03-1.49,.07-3.33-.57-6.88-.18-9.67,1.09-50.94,23.24-98.38,53.23-140.71,89.92-3.33,2.89-4.85,7.44-2.68,10.99-.46,.82-.75,1.74-.81,2.78-.84,14.26,12.13,25.18,24.99,28.13,17.09,3.92,34.69-3.57,50.12-10.2,28.63-12.29,57.87-29.63,78.88-52.97,10.03-11.14,18.07-24.58,19.82-39.64,.7-6.05,1.63-12.74-.32-18.68Z" fill="#a67c52"/><path d="M2254.34,2233.25c-11.24,15.32-45.54,22.99-88.2,26.22h-.03c-100.97,7.62-248.78-9.71-248.78-9.71,0,0-81.84-31.63-152.69-40.58-52.33-6.6-264.94-12.45-386.34-27.54-42.94-5.34-74.47-11.83-83.47-19.91-34.46-30.95,2.14-156.12,.08-172.62-2.06-16.52,39.89-251.03,50.89-317.06,11-66.02,74.28-307.42,99.72-344.25,25.45-36.83,129.72-64.96,125.17-45.7-4.54,19.26-16.51,66.71,16.51,99.73,33.02,33.01,151.31-42.65,177.44-72.39,26.14-29.76,13.1-43.83,13.1-43.83,3.47-19.26,165.71,48.13,251.69,127.22,85.97,79.1,198.07,370.01,229.02,500.69,30.95,130.68,33.7,288.17-4.13,339.75Z" fill="#ffc0ad"/><path d="M2166.12,2259.47c-100.97,7.62-248.78-9.71-248.78-9.71,0,0-81.84-31.63-152.69-40.58-52.33-6.6-264.94-12.45-386.34-27.54-12.29-28.5-6.51-56.96,12.67-87.93,30.07-48.55,71.36-126.06,134.02-113.38,62.67,12.68,90.2,44.91,90.2,44.91,0,0-3.26,14.13-6.53,17.38-3.25,3.26,116.28,48.55,172.42,77.52,56.16,28.98,278.87,128.68,385.02,139.33Z" fill="#9656a1" opacity=".41"/><path d="M1804.19,1099.76c-.01,1.85-.13,3.71-.33,5.57-6.18,55.71-44.01,52.96-44.01,52.96-22.7,79.79-101.8,129.99-132.05,136.86-30.26,6.88-91.47,6.88-134.11-62.58-20.29-33.05-34.51-80.59-43.84-121.34-10.27-44.9-14.62-81.56-14.62-81.56,0,0-9.62-44.01-8.26-62.58,1.38-18.57,20.63-81.85,92.85-77.72,72.21,4.13,193.26,105.23,201.52,106.6,7.97,1.33,83.43,50.22,82.86,103.78Z" fill="#c69c6d"/><path d="M1804.19,1099.76c-13.17-38.12-56.64-25.5-92.4-14.85-39.52,11.78-95.12,28.37-133.42,15.32-38.3-13.05-60.88-122.96-88.02-120.93-29.67,2.23-42.31,30.2-34.01,70.98,7.38,36.18-3.87,56.78-6.49,60.95-10.27-44.9-14.62-81.56-14.62-81.56,0,0-9.62-44.01-8.26-62.58,1.38-18.57,20.63-81.85,92.85-77.72,72.21,4.13,193.26,105.23,201.52,106.6,7.97,1.33,83.43,50.22,82.86,103.78Z" fill="#8c6239"/><path d="M1723.24,1061.78c-.67,17.3-.35,34.53,.36,51.83,.17,4.11,6.13,5.12,7.29,.99,2.85-10.21,3.92-20.05,4.8-30.56,.36-4.28,1.13-8.52,2.31-12.65,1.33-4.68,4.67-8.63,5.64-13.33,1.21-5.9-4.62-10.64-10.08-7.75-9.14,4.84-11.55,19.5-12.33,28.79-.45,5.35-.31,10.7,.11,16.05,.49,6.2,2.05,12.22,2.27,18.47h7.42c-1.65-17.25-2.86-34.55-4.22-51.83-.18-2.27-3.47-2.32-3.56,0h0Z" fill="#230000"/><path d="M1448.29,908.63s-48.14,41.27-44.02,80.47c4.13,39.2,29.78,104.54,30.71,123.8,.93,19.26,16.06-11.69,19.5-39.2,1.78-14.25-10.2-45.5-10.32-64.65-.11-17.81,16.51-27.51,16.51-27.51l-12.38-72.9Z" fill="#230000"/><path d="M1799.29,1074.81c-9.37-17.46-31.89-27.25-61.46-12.12-29.57,15.14-96.98,39.2-137.55,33.71-40.58-5.51-63.97-96.29-93.54-121.74-29.57-25.44-46.07,6.88-46.07,6.88-4.21-3.59-7.86-7.25-10.97-10.94l-.05-.05h0c-56.33-66.73,61.11-145.64,158.19-167.14,102.49-22.7,163.69,83.21,183.63,144.43,15.59,47.85,35.38,59.97,51.16,69.88,4.41,2.78,8.5,5.37,12.11,8.53,16.52,14.44-46.07,66.02-55.45,48.56Z" fill="#230000"/><path d="M1799.29,1074.81c-9.37-17.46-31.89-27.25-61.46-12.12-29.57,15.14-96.98,39.2-137.55,33.71-40.58-5.51-63.97-96.29-93.54-121.74-29.57-25.44-46.07,6.88-46.07,6.88l-10.97-10.94-.05-.05h0c-.14-.68-5.03-24.79,28.22-26.15,33.7-1.38,67.89,77.03,99.03,114.86,31.14,37.83,79.64,27.4,121.04,0,77.1-51.02,121.95-1.47,144.7-41.54,4.41,2.78,8.5,5.37,12.11,8.53,16.52,14.44-46.07,66.02-55.45,48.56Z"/><path d="M1423.53,1553.06s9.63,30.95,10.32,101.79c.69,70.84-24.07,377.58-24.07,377.58,0,0-72.21,39.89-77.03,24.76-4.81-15.13,40.58-84.59,59.15-229.71,18.57-145.12,16.51-308.11,31.64-274.41Z" fill="#9656a1"/><path d="M1924.76,1572.37c41.88,105.5,82.85,211.37,122.9,317.58,15.54,41.22,31.41,82.3,44.48,124.4,.53,1.72,1.01,3.75-.07,5.17-.9,1.18-2.53,1.47-4,1.63-14.06,1.57-28.05-.77-41.86-3.26-77.08-13.9-153.11-32.81-228.6-53.57-94.22-26.13-175.83-47.32-181.92-39.84-5.64,6.92-8.92,13.22-8.92,13.22-8.25,1.38-128.27,4.61-128.27,4.61,0,0,113.48-28.2,134.8-34.39,13.92-4.04,35.04,2.71,48.79,4.85,31.15,4.84,62.19,10.32,93.3,15.41,32.17,5.27,64.4,10.35,96.78,14.16,26.2,3.09,52.38,5.96,78.75,3.18,4.73-.5,9.89-1.38,12.98-4.99,2.67-3.13,3.11-7.54,3.33-11.65,1.97-36.13-4.88-71.32-10.64-106.79-12.83-78.95-28.68-157.28-39.57-236.57-.89-6.48,.03-15.48,6.53-16.26,.41,1.03,.82,2.06,1.23,3.09Z" fill="#9656a1" opacity=".46"/><path d="M1626.77,1937.73s0,.01-.01,.04c-.1,.32-.87,2.68-1.81,6.64-1.31,5.63-2.98,14.5-3.59,25.41-1.08,19.19-6.16,55.42-6.16,55.42,0,0-11.59-2.17-32.96,5.8-21.37,7.97-60.26,11.59-83.75,11.59h-26.73s-25.5,29.77-34.86,44.63c-.01,.04-.03,.06-.04,.08-1.45,2.29-2.5,4.23-3.01,5.65-3.76,10.5-31.65,32.23-33.1,32.96-1.45,.73-39.48,16.3-48.53,5.8-9.06-10.5-19.83-86.21-19.83-86.21,0,0,76.33-85.5,91.91-90.56,15.59-5.07,110.12-19.56,132.22-22.83,22.1-3.26,70.25,5.58,70.25,5.58Z" fill="#c69c6d"/><path d="M1423.94,2048.42s-34.77,65.93-48.54,73.17c-13.76,7.24-8.69-10.5-7.61-10.87s54.7-69.55,56.15-62.3Z" fill="#140d0b" opacity=".8" stroke="#140d0b" stroke-miterlimit="10"/><path d="M1394.97,2030.31s-34.05,65.93-40.57,67.37c-6.52,1.45-4.71-14.49,0-20.65s40.41-56.51,40.57-46.73Z" fill="#140d0b" opacity=".8" stroke="#140d0b" stroke-miterlimit="10"/><path d="M1624.95,1944.4c-1.31,5.63-2.98,14.5-3.59,25.41-1.08,19.19-6.16,55.42-6.16,55.42,0,0-11.59-2.17-32.96,5.8-21.37,7.97-60.26,11.59-83.75,11.59h-26.73s-25.5,29.77-34.86,44.63c1.19-2.22,24.56-49.73,38.11-51.52,13.76-1.81,77.52-6.88,107.58-22.81,23.86-12.66,37.68-52.57,42.35-68.52Z" fill="#8c6239" opacity=".8"/><path d="M1925.28,1359.95c-11.31,6.35-20.37,18.66-26.8,29.65-6.9,11.79-11.49,24.76-14.46,38.06-7.38,33.01-2.98,67.06,1.97,100.07,.8,5.31,16.21,4.98,15.72,0-3.1-31.48-6.93-63.83-.99-95.21,2.44-12.89,6.72-25.47,12.95-37.02,3.18-5.88,6.87-11.56,11.19-16.68,4.24-5.02,9.42-8.87,13.92-13.57,5.81-6.05-10.25-7.12-13.49-5.3Z" fill="#140d0b" stroke="#140d0b" stroke-miterlimit="10"/><g><path d="M1485.86,1133.81c3.27,8.88,7.83,17.28,13.49,24.86"/><path d="M1480.26,1137.18c1.31,8.79,6.04,16.94,10.87,24.24,5.97,9.01,20.67,.04,14.35-8.39-4.99-6.64-8.65-14.07-13.41-20.83-4.36-6.2-12.88-2.26-11.8,4.98h0Z"/></g><g><path d="M1611.48,1114.91c1.96,8.26,4.65,16.35,8.03,24.13"/><path d="M1604.16,1114.91c.73,8.68,2.52,16.79,5.73,24.91,4.86,12.31,22.19,5.27,16.87-7.11-2.81-6.55-5.5-13.16-8.23-19.74-1.41-3.41-4.12-5.77-8.03-5.24-3.34,.45-6.65,3.55-6.34,7.18h0Z"/></g><path d="M1458.22,1177.46c-3.18,5-5.25,10.64-5.58,16.54-1.75,31.6,42.42,40.73,64.84,30.06,13.24-6.31,23.23-19.89,23.48-34.55,.66-38.69-51.07-41.68-74-22.05-3.36,2.88-6.36,6.26-8.74,10Z" fill="#fff" opacity=".27"/><path d="M1576.96,1156.48c-3.18,5-5.25,10.64-5.58,16.54-1.75,31.6,42.42,40.73,64.84,30.06,13.24-6.31,23.23-19.89,23.48-34.55,.66-38.69-51.07-41.68-74-22.05-3.36,2.88-6.36,6.26-8.74,10Z" fill="#fff" opacity=".27"/><path d="M1458.22,1177.46c-3.18,5-5.25,10.64-5.58,16.54-1.75,31.6,42.42,40.73,64.84,30.06,13.24-6.31,23.23-19.89,23.48-34.55,.66-38.69-51.07-41.68-74-22.05-3.36,2.88-6.36,6.26-8.74,10Z" fill="none" stroke="#fff" stroke-miterlimit="10" stroke-width="3.66"/><path d="M1576.96,1156.48c-3.18,5-5.25,10.64-5.58,16.54-1.75,31.6,42.42,40.73,64.84,30.06,13.24-6.31,23.23-19.89,23.48-34.55,.66-38.69-51.07-41.68-74-22.05-3.36,2.88-6.36,6.26-8.74,10Z" fill="none" stroke="#fff" stroke-miterlimit="10" stroke-width="3.66"/><path d="M1538.28,1175.91c.81-2.42,3.33-4.69,5.33-6.21,2.26-1.71,4.91-2.82,7.66-3.44,6.09-1.38,12.45-.16,17.81,2.96,3.48,2.02,6.66-3.43,3.15-5.39-6.86-3.83-15.4-4.64-22.88-2.21-3.32,1.08-6.46,2.77-8.95,5.24-1.2,1.19-2.09,2.53-2.76,4.08s-.71,3.12-.8,4.78c-.04,.87,1.19,.95,1.45,.2h0Z" fill="#fff"/><path d="M1492.07,1206.51c2.63-4.8,5.34-9.55,8.13-14.26,1.35-2.28,2.73-4.56,4.12-6.82,1.45-2.36,3.19-4.7,4.08-7.33,.55-1.64-1.64-2.72-2.79-1.62-1.94,1.86-3.26,4.43-4.66,6.71-1.43,2.33-2.84,4.68-4.23,7.03-2.78,4.71-5.48,9.47-8.1,14.27-1.23,2.26,2.21,4.28,3.45,2.02h0Z" fill="#fff"/><path d="M1609.57,1180.13c2.25-4.04,4.36-8.15,6.31-12.34,.98-2.11,1.97-4.24,2.8-6.41,.83-2.16,1.7-4.21,1.58-6.56-.05-.97-1.26-1.58-1.99-.83-.81,.84-1.55,1.8-2,2.87-.42,.99-.85,1.97-1.29,2.96-.9,2.04-1.74,4.12-2.65,6.16-1.85,4.16-3.86,8.24-6.01,12.25-1.14,2.13,2.07,4.02,3.25,1.9h0Z" fill="#fff"/><g><path d="M1456.8,1123.56c-1.5-4.01,.9-8.38,3.54-11.76,7.72-9.86,18.35-17.41,30.21-21.43"/><path d="M1457.9,1123.26c-1.14-4.07,1.96-8.22,4.47-11.13s5.41-5.82,8.48-8.34,6.31-4.72,9.73-6.65c1.76-.99,3.58-1.86,5.4-2.75s3.82-1.44,5.4-2.62c1.2-.89,.93-3.05-.82-3.02s-3.42,.73-5.07,1.37-3.18,1.33-4.72,2.13c-3.05,1.58-5.98,3.4-8.73,5.44-5.5,4.08-10.72,9.14-14.4,14.95-2.14,3.38-3.52,7.32-1.93,11.22,.54,1.32,2.61,.85,2.2-.61h0Z"/></g><path d="M1761.29,1094.85c-9.81,5.47-14.91,17.03-11.48,27.91,2.34,7.43,9.09,12.32,16.98,9.78,6.18-2,10.41-7.43,12.61-13.32,1.93-5.18,3.26-12.43,1.92-17.91-1.72-7.06-9.03-12.15-16.28-10.01-5.98,1.76-8.98,8.19-11.35,13.42-3.08,6.78-6.01,13.49-2.53,20.68,2.46,5.09,8.8,4.48,12.48,1.61s4.43-7.16,6.03-11.32c.55-1.42,1.17-2.8,1.86-4.16,.47-.93,.97-1.85,1.49-2.75,1.48-2.16,.92-1.91-1.66,.75h-5.07l1.2,.39-4.21-2.45c-.4-2.56-.59-3.12-.58-1.68,0,.65-.06,1.31-.16,1.96-.13,1.18-.34,2.34-.61,3.5-.15,.64-1.13,2.49-1.13,2.97,0,.57-.91-.09,.44,0l4.75,1.29c1.49,2.21,1.85,2.39,1.1,.53-.1-.44-.2-.88-.31-1.32-.2-1.23-.2-2.55-.09-3.79,.2-2.21,.78-4.51,2.18-6.28,4.18-5.28-.95-13.46-7.55-9.78h0Z" fill="#a67c52"/><path d="M1656.22,1146.86c2.49-1.81,4.89-3.7,7.2-5.72,2.29-2.01,4.56-4.03,6.82-6.06,4.46-4.01,8.93-8.01,13.36-12.06,8.92-8.14,17.92-16.2,26.73-24.46l7.47-7c2.5-2.34,5.14-4.69,6.97-7.61,.71-1.13-.66-2.3-1.74-1.74-2.74,1.42-5.08,3.57-7.36,5.63l-6.68,6.03c-4.48,4.05-8.9,8.16-13.33,12.27-8.82,8.18-17.65,16.36-26.4,24.61-4.94,4.66-9.96,9.23-14.39,14.38-.36,.41-.44,1-.09,1.44,.31,.39,.97,.61,1.42,.28h0Z" fill="#fff"/><g opacity=".39"><path d="M1573.08,1396.63c19.2,18.57,47.06,22.24,72.31,16.8,29.66-6.39,57.73-22.48,83.22-38.42,7.14-4.47,14.3-9.01,20.97-14.16,5.15-3.97,12.59-9.55,13.54-16.45,.28-2.05-1.52-3.74-3.53-2.71-3.58,1.84-6.09,5.2-9.06,7.85-3.02,2.68-6.14,5.2-9.44,7.53-6.95,4.92-14.18,9.46-21.46,13.87-15.62,9.47-31.82,18.36-48.56,25.7-29.46,12.93-68.09,19.74-94.52-3.49-2.36-2.07-5.77,1.25-3.48,3.48h0Z" fill="#d04719"/></g><g opacity=".39"><path d="M1782.16,1325.81c6.2-6.82,12.43-13.71,17.07-21.72,3.84-6.63,8.57-15.99,6.27-23.8-.56-1.9-2.98-1.67-3.64,0-1.54,3.93-1.78,8.3-3.03,12.34-1.22,3.9-2.94,7.62-4.93,11.18-4.01,7.18-8.84,13.86-13.8,20.41-.9,1.19,1.07,2.69,2.06,1.59h0Z" fill="#d04719"/></g><g><path d="M1602.15,2043.41c170.1,80.23,344.27,151.84,521.61,214.46" fill="#140d0b"/><path d="M1600.86,2045.63c65.89,32.99,133.2,63.05,200.89,92.15,67.25,28.9,135.22,56.12,203.64,82.1,19.27,7.32,38.58,14.53,57.93,21.63s39.19,14.9,59.51,19.72c3.67,.87,6.4-4.6,2.69-6.37-16.31-7.79-33.45-13.65-50.43-19.81s-34.48-12.6-51.67-19.03c-34.38-12.86-68.64-26.05-102.76-39.59-68.48-27.16-136.53-55.47-203.99-85.09-37.79-16.59-75.47-33.44-113.21-50.16-2.96-1.31-5.6,2.94-2.6,4.44h0Z" fill="#140d0b"/></g><path d="M1605.91,2044.75c5.32-4.16,8.33-11.51,10.15-17.83,2.14-7.4,3.59-15.8,2.11-23.43-.24-1.24-1.82-.92-2.2,0-2.76,6.71-2.97,14.23-4.93,21.2-1.84,6.54-5.14,11.71-8.36,17.56-1.2,2.17,1.47,3.87,3.23,2.49h0Z" fill="#140d0b"/><path d="M1925.57,1584.53c8.38,38.91,23.96,75.49,40.12,111.71,16.75,37.53,32.78,75.37,47.91,113.58,15.14,38.23,29.39,76.8,42.69,115.7,6.6,19.32,12.99,38.71,19.09,58.2,2.76,8.8,4.82,17.68,7.33,26.53,2.05,7.23,5.34,14.08,13.15,16.14,4.17,1.1,8.64,1.02,12.88,1.81,5.67,1.06,11.29,2.38,16.83,3.95,9.91,2.81,19.59,6.4,28.9,10.82,18.7,8.88,34.57,21.38,51.18,33.51,4.2,3.07,7.85-3.22,5.12-6.64-11.08-13.93-26.64-24.32-42.2-32.66-16.05-8.6-33.34-15.03-51.15-18.86-4.27-.92-8.58-1.75-12.93-2.21-3.44-.36-6.84-.02-8.79-3.29-3.95-6.63-4.45-15.94-6.74-23.27-6.03-19.37-12.38-38.65-18.93-57.86-26.06-76.35-55.42-151.79-89.04-225.13-18.52-40.4-37.97-80.65-50.79-123.32-.89-2.97-5.28-1.74-4.63,1.28h0Z" fill="#140d0b"/><g><path d="M1666.2,1928.22c60.33,11.06,120.18,24.74,179.33,40.99,76.15,20.92,152.07,46.26,230.93,50.51" fill="#140d0b"/><path d="M1665.84,1929.54c54.75,12.26,109.32,24.86,163.45,39.65,52.32,14.29,104.2,30.6,157.3,41.83,29.55,6.25,59.62,10.32,89.87,9.55,.92-.02,1.22-1.55,.23-1.68-53.44-7.37-105.83-19.06-157.79-33.47-53.1-14.73-105.9-29.76-159.77-41.49-30.67-6.68-61.48-12.54-92.55-17.03-1.7-.25-2.49,2.25-.73,2.65h0Z" fill="#140d0b"/></g><g><path d="M2179.82,2072.6c15.58,14.47,27.99,32.33,36.12,51.97" fill="#140d0b"/><path d="M2177.84,2074.58c7.66,7.79,14.4,16.29,20.23,25.53,2.69,4.26,5.31,8.55,7.66,13.01s4.09,10.15,7.47,14.2c2.07,2.49,6.97,.54,6.63-2.75-.52-5.14-3.41-9.85-5.84-14.34-2.78-5.16-5.82-10.24-9.32-14.95-6.73-9.04-14.37-17.27-22.87-24.66-2.7-2.34-6.52,1.36-3.96,3.96h0Z" fill="#140d0b"/></g><path d="M1479.86,913.17c13.78-5.83,31.57,4.33,43.01,11.58,12.52,7.93,23.26,18.37,32.81,29.63,10.27,12.11,19.04,25.4,27.97,38.51,4.55,6.68,9.08,13.39,13.87,19.9,4.44,6.03,9.65,13.31,16.22,17.12,2.31,1.34,5.96-.94,4.87-3.74-3.02-7.81-9.24-14.83-14.17-21.56-5.32-7.26-10.43-14.66-15.58-22.03-9.73-13.9-19.83-27.7-31.58-39.98-10.83-11.31-23.2-21.54-37.24-28.6-12.51-6.29-29.34-11.93-42.66-5.07-2.88,1.48-.35,5.44,2.48,4.24h0Z" fill="#230000"/><path d="M1591.35,944.16c11.86,18.56,25.97,35.08,43.26,48.83,8.31,6.61,17.07,12.63,26.28,17.91,9.18,5.26,19.4,10.31,29.99,11.25,2,.18,2.21-2.46,.92-3.41-8.17-6.03-17.81-10.07-26.72-15.01-9.14-5.07-17.93-10.83-26.16-17.27-16.27-12.74-31.3-27.92-43.13-44.89-1.87-2.68-6.25-.23-4.44,2.6h0Z" fill="#230000"/><rect x="539.14" y="2233.67" width="2034.92" height="66.33" fill="#010101"/><g><rect x="1100.55" y="2182.45" width="813.89" height="51.22" fill="#3d9ba8"/><polygon points="1471.56 2233.67 829.13 2233.67 453.8 1665.84 1096.23 1665.84 1471.56 2233.67" fill="#78c1d0"/><polygon points="1436.91 2233.67 794.48 2233.67 710.07 2105.95 419.15 1665.84 1061.58 1665.84 1436.91 2233.67" fill="#003347"/><ellipse cx="892.08" cy="1949.75" rx="76.32" ry="30.6" fill="#78c1d0"/><path d="M1436.91,2233.67H794.48l-84.41-127.71c84.83-111.45,241.92-318.35,334.36-440.12h17.16l375.33,567.83Z" fill="#78c1d0" opacity=".29"/></g></g><path d="M2703.54,2132.86c2.91-.2,5.82-.45,8.73-.66s5.39-.49,8.18-.86c-.77,.1-3.08,.4,.52-.06,7.48-.96,14.95-1.98,22.4-3.17,2.92-.47,5.84-.96,8.76-1.47,1.17-.21,2.33-.41,3.49-.63l1.74-.32c2.41-.46,2.32-.44-.24,.07,.58-.75,7.64-.15,8.52-.17,4.85-.13,9.33-1.04,14.01-2.19,23.66-5.84,47.08-13.15,70.12-21.04,12.94-4.43,25.63-10.15,38.19-15.53,11.45-4.9,22.94-9.9,34.01-15.63,21.11-10.92,41.77-22.71,61.99-35.2,73.23-45.23,141.03-99.93,201.08-161.57,60.01-61.6,112.75-130.84,156.86-204.65,21.62-36.18,41.16-73.6,58.45-112.04,18.42-40.94,35.09-82.76,48.13-125.73,12.08-39.82,21.83-80.36,29.09-121.34,4.28-24.16,7.7-48.49,10.52-72.86,1.2-10.37,1.06-20.66,1.48-31.07,.43-10.64,.68-21.28,.76-31.92,.06-7.95,.7-17.01-1.72-24.56-2.96-9.23-8.44-18.33-14.74-25.61l8.83,15.15c-.92-4.26-2.7-8.41-4.14-12.52-4.22-12-15.1-22.48-28.72-21.87s-23.89,9.03-28.72,21.87c-1.55,4.13-3.48,8.26-4.62,12.52l8.83-15.15c-3.65,3.79-6.37,8.1-9.18,12.46-5.19,8.07-7.13,15.95-8.12,25.52-.6,5.83-1.04,11.68-1.62,17.51-1.18,11.92-2.95,23.78-4.12,35.7l1.55-11.54c-4.78,17.34-5.22,36.08-7.59,53.9l1.59-11.87c-10.24,76.09-29.41,150.47-54.89,222.84-7.24,20.57-15.12,40.92-23.58,61.02l4.33-10.26c-28.49,67.44-63.65,132.04-105.01,192.46-11.75,17.16-23.99,33.98-36.7,50.44l6.06-7.85c-42.91,55.44-90.76,106.96-143.64,153.03-14.9,12.98-30.18,25.5-45.81,37.59l6.86-5.3c-34.44,26.56-70.55,50.99-108.22,72.73-20.47,11.82-40.93,23.63-62.11,34.16-10.53,5.24-20.82,10.77-31.6,15.51-2.4,1.05-4.79,2.27-7.26,3.14,7.13-2.51-1.97,.79-3.67,1.48-6.03,2.45-12.1,4.8-18.21,7.06-7.43,2.75-15.12,4.89-21.89,9.01-.97,.59-1.98,1.14-2.96,1.71-.99,.56-1.98,1.13-2.97,1.68,2.01-.73,2.31-.85,.89-.36-3.1,.93-6.16,2.05-9.25,3.03-12.9,4.1-25.96,7.7-39.04,11.17-7.91,2.1-12.82,10.08-11.75,18s7.94,14.79,16.11,14.23h0Z" fill="#94a1b2"/><path d="M3332.6,623.35c7.09,12.42,13.78,25.06,20.01,37.92,.75,1.55,1.5,3.1,2.23,4.66,.17,.35,2.5,5.55,.88,1.79,1.79,4.15,3.35,8.4,5.21,12.52,3.08,6.79,6.34,13.5,9.34,20.34,.69,1.58,1.37,3.16,2.05,4.75,2.32,5.34-1.7-4.19,.48,1.14,1.29,3.15,2.59,6.3,3.84,9.46,2.52,6.35,5.12,12.66,7.6,19.02,5.17,13.29,9.9,26.75,14.16,40.36,8.38,26.7,15.15,54.03,20.36,81.52,1.28,6.75,2.45,13.52,3.51,20.31,.53,3.4,1.02,6.8,1.51,10.2,.89,6.13-.8-6.45-.04-.33,.28,2.27,.57,4.53,.84,6.8,1.61,13.61,2.78,27.27,3.5,40.95,.75,14.28,1.85,28.55,2.38,42.84,.26,6.86,.4,13.72,.43,20.58,.02,5.05-.46,10.43,.89,15.35,2.01,7.31,7.05,14.41,13.63,18.19,12.19,7,25.49,.2,32.15-10.81,5.4-8.93,4.95-21.02,5.55-31.29,.83-14.2,1.62-28.64,.98-42.86-1.35-29.7-5.8-59.64-11.5-88.79-5.38-27.54-12.61-54.59-21.9-81.07-10.87-30.97-23.66-61.54-39.65-90.23-15.97-28.65-35.43-55.12-56.25-80.44-4.42-5.37-13.52-5.12-18.56-1.11-5.49,4.37-7.21,11.98-3.64,18.23h0Z" fill="#94a1b2"/><path d="M14.05,1596.24c.19,2.54-.17,5.11-.34,7.65-.32,4.89-.16,9.25,1.09,14.17,1.32,5.19,2.92,10.33,4.48,15.45,3.06,10.02,6.35,19.9,10.3,29.61,8.83,21.76,18.47,43.17,29.42,63.95,21.06,39.95,47.58,76.62,76.87,110.94,56.35,66.01,127.12,120.99,204.58,160.08,23.63,11.92,47.92,22.6,73.11,30.75,11.21,3.62,22.41,6.83,33.96,9.16,6.02,1.21,12.06,2.39,18.12,3.35,8.65,1.37,15.62,1.62,24.17-.76,4.72-1.31,9.03-3.5,13.18-6.02,12.88-7.8,18.2-25.44,10.14-38.68-2.81-4.62-5.84-9.13-9.9-12.74-2.83-2.52-6-5.23-9.24-7.21-3.47-2.12-8.6-3.65-12.7-5.2-6.91-2.62-13.76-5.38-20.58-8.24l9.16,3.87c-13.46-5.7-27.16-10.8-40.63-16.48l9.55,4.03c-11.31-4.8-22.56-9.71-33.88-14.49l9.7,4.09c-50.5-21.43-98.02-49.42-141.49-82.87l8.07,6.24c-46.04-35.6-87.92-76.95-123.57-122.96l5.93,7.67c-15.68-20.33-30.6-41.46-44.31-63.17-13.73-21.73-25.43-44.41-37.18-67.23-3.33-6.47-6.54-13-9.63-19.59-2.4-5.12-4.44-9.58-8.28-13.96-1.16-1.32-2.46-2.55-3.64-3.86-1.47-1.62-4.32-6.17-.39-.06-5.73-8.91-17.27-14.82-27.93-11.37-9.83,3.18-19.01,12.79-18.16,23.85h0Z" fill="#94a1b2"/><g><path d="M2711.92,1978.72c-40.55-192.02-41.48-392.32-2.7-584.71,30.41-150.89,89.85-303.74,208.32-402.03,21.23-17.62,45.13-33.67,72.37-38.03s58.37,5.78,71.59,29.99c7.01,12.83,8.35,27.91,9.03,42.51,4.25,90.91-11.75,182.72-46.51,266.83l-312.1,685.43Z" fill="#13a497"/><path d="M3008.79,1553.01c11.42-46.17,36.43-87.44,60.22-128.13,21.7-37.1,44.45-77.91,82.37-99.77,8.92-5.14,16.77-8.41,26.93-10.81,5.12-1.21,7.97-1.7,12.83-1.87,1.29-.05,2.6-.09,3.88,.03-1.64-.16,.74,.15,.92,.19,2.47,.6,1.46,.49,.73,.05,.51,.31,.82,.95,1.32,2.11,.87,2.01,1.95,8.15,2.14,10.49,.43,5.46,.48,11.03-.28,16.46-1.2,8.59-4.85,19.42-9.29,27.78-19.94,37.55-59.98,60.48-94.84,83.33-20.6,13.5-41.09,27.14-60.49,42.34-9.33,7.31-18.23,15.02-26.46,23.56-4.1,4.25-8.07,8.63-11.84,13.18-4.51,5.45-6.39,11.77-9.69,17.83-5.46,10.04,7.58,20.55,15.95,12.31,3.96-3.9,8.82-6.08,12.75-9.99,4.19-4.16,8.14-8.52,12.44-12.58,8.2-7.72,16.8-15.11,25.58-22.17,16-12.86,35.87-26.12,54.21-38.31,38.99-25.92,84.08-52.54,106.47-95.43,11.62-22.26,17.15-48.71,10.51-73.37-4.02-14.9-14.55-24.27-30.12-25.07-11.46-.59-23.83,2.28-34.56,6.16-47.64,17.22-77.42,58.62-101.26,101.13-27.67,49.36-55.26,100.08-65.31,156.43-1.71,9.61,12.46,13.89,14.88,4.1h0Z" fill="#56cbb8"/><path d="M3125.79,1241.74c4.3-44.06,25.54-85.56,58.13-115.42,3.93-3.6,8-7.08,12.28-10.27,1.85-1.38,3.71-2.85,5.77-3.91,1.3-.67,3.63-1.88,4.32-1.24,1.63,1.53-3.52-1.23-3.13-1.38-.86,.32-.1-1.64-.32,1.45-.18,2.46,.25,5.09,.28,7.57,.07,5.55-.18,11.11-.72,16.63-1.98,20.4-8.7,40.85-18.53,58.75-5.66,10.3-12.18,19.73-19.94,28.36-4.22,4.69-8.83,8.98-13.24,13.49-4.77,4.88-8.16,9.66-11.7,15.47-3.63,5.96,2.34,12.44,8.57,11.14s11.85-3.23,17.15-7.22c5.74-4.32,10.76-9.08,15.54-14.42,8.58-9.59,16.24-20.14,22.56-31.36,12.84-22.79,20.46-48.11,22.22-74.21,.37-5.54,.46-11.09,.23-16.63-.31-7.73-.2-16.86-5.58-22.99-10.48-11.91-26.29-4.15-36.14,4.07-19.62,16.37-35.94,37.04-47.74,59.68-13.3,25.52-21.23,53.68-22.84,82.42-.47,8.36,12.07,8.1,12.86,0h0Z" fill="#56cbb8"/><path d="M2955.04,1669.84c70.12-61.7,151.79-119.32,245.04-124.55,20.82-1.17,42.13,.43,61.57,7.97,19.44,7.54,36.93,21.53,45.73,40.44,10.13,21.75,7.84,47.51,.13,70.23-7.53,22.17-20.02,42.64-36.29,59.48-29.57,30.61-69.89,48.05-109.4,63.87-110.17,44.11-223.08,81.75-330.34,132.88-27.14,12.93-53.88,26.72-79.97,41.64-7.4,4.23-26.06,20.44-34.68,16.26-12.75-6.19,1.91-23.89,6.12-31.39,27.77-49.45,60.66-95.92,96.99-139.43,41.21-49.36,86.84-94.94,135.1-137.4Z" fill="#56cbb8"/><path d="M2723.88,1965.4c60.68-61.09,124.26-119.36,192.72-171.67,68.23-52.13,141.02-98.83,216.7-139.35,21.45-11.48,43.14-22.52,65.07-33.04,10.71-5.14,21.48-10.16,32.31-15.06s22.94-9.67,33.51-16.17c5.64-3.47,2-12.4-4.52-10.72-10.71,2.76-20.79,7.45-30.87,11.97s-19.56,8.91-29.27,13.52c-19.68,9.34-39.17,19.06-58.42,29.26-38.24,20.27-75.64,42.12-112.09,65.46-73.08,46.81-142.07,99.94-206.21,158.4-36.04,32.84-70.26,67.29-102.17,104.17-1.91,2.2,1.13,5.35,3.23,3.23h0Z" fill="#fff"/><g opacity=".52"><path d="M2726.12,1918.45c-.93-68.92,7.01-137.84,19.84-205.49,12.94-68.24,31.3-135.34,52.23-201.52,20.56-65.02,43.37-129.36,66.62-193.46,21.88-60.33,44.96-120.31,72.35-178.38,27.32-57.92,58.96-114,97.36-165.35,4.68-6.26,8.71-13.02,12.92-19.61,3.42-5.35-4.34-11.23-8.74-6.74-22.51,22.98-40.07,50.94-56.88,78.25-16.79,27.28-32.1,55.46-46.25,84.2-28.76,58.38-52.82,118.97-75.22,180.03-23.46,63.95-45.98,128.31-66.53,193.26s-39.85,133.92-53.5,202.41c-13.56,68-21.31,136.6-21.85,205.97-.07,8.81,0,17.63,.18,26.44,.1,4.8,7.53,4.82,7.47,0h0Z" fill="#fff"/></g><g opacity=".52"><path d="M2746.19,1753.91c29.68-47.42,65.49-90.96,108.62-126.77,6.21-5.16,12.57-10.12,19.01-14.98,5.89-4.44,13.06-8.83,17.35-14.93,2.06-2.93-1.33-6.44-4.39-5.71-6.55,1.57-12.69,6.41-18.04,10.33-5.73,4.2-11.32,8.58-16.82,13.08-11.1,9.08-21.77,18.69-31.97,28.77-20.13,19.9-38.12,41.85-54.05,65.23-9.19,13.49-17.14,27.64-24.33,42.28-1.5,3.06,2.77,5.63,4.61,2.69h0Z" fill="#fff"/></g><g opacity=".52"><path d="M2796.72,1548.76c46.25-52.11,98.72-98.32,155.86-138.16,8.13-5.67,16.36-11.21,24.69-16.6,3.92-2.54,7.77-5.19,11.64-7.81s8.34-4.78,10.72-8.98c1.13-1.99-.28-4.79-2.7-4.7-4.09,.16-7.08,2.14-10.56,4.13-3.79,2.17-7.62,4.31-11.31,6.65-7.39,4.68-14.64,9.6-21.84,14.57-14.52,10.01-28.73,20.46-42.58,31.38-27.7,21.86-54.05,45.4-78.91,70.44-13.98,14.08-27.49,28.61-40.51,43.59-3.26,3.75,2.16,9.25,5.5,5.5h0Z" fill="#fff"/></g><g opacity=".52"><path d="M2843.95,1366.06c49.37-47.21,105.2-88.3,165.07-121.2,8.33-4.58,16.81-8.86,25.21-13.31s17.71-8.49,25.72-14.01c3.52-2.43,1.45-8.27-2.99-7.1-8.18,2.15-15.82,6.06-23.44,9.64s-15.46,7.71-23.05,11.86c-15.41,8.43-30.53,17.39-45.32,26.88-29.22,18.74-57,39.48-83.12,62.35-14.73,12.89-28.92,26.38-42.6,40.38-2.88,2.95,1.55,7.37,4.53,4.53h0Z" fill="#fff"/></g><g opacity=".52"><path d="M2918.4,1170.65c21.8-23.48,45.7-45.04,71.37-64.21,12.63-9.44,25.69-18.3,39.13-26.56,6.84-4.21,13.76-8.3,20.77-12.22s13.81-7.37,19.95-12.26c3.33-2.66-.3-7.92-4-6.88-14.89,4.17-28.99,14.22-41.88,22.52-13.61,8.77-26.79,18.18-39.56,28.14-25.58,19.94-49.12,42.36-70.52,66.73-2.83,3.22,1.78,7.93,4.74,4.74h0Z" fill="#fff"/></g><g opacity=".52"><path d="M2852.19,1097.94c10.36,18.7,18.34,38.5,23.54,59.24,2.52,10.05,4.74,20.15,6.21,30.41s1.03,21.51,3.83,31.51c.9,3.19,6.02,3.48,6.76,0,2.11-10-.04-21.28-1.63-31.24-1.77-11.05-4.15-22.11-7.56-32.78-6.63-20.81-15.76-40.85-27.2-59.45-1.54-2.5-5.38-.27-3.95,2.31h0Z" fill="#fff"/></g><g opacity=".52"><path d="M2756.98,1236.89c-.21,4.02,1.71,7.96,2.95,11.75,1.36,4.18,2.89,8.29,4.38,12.42,2.98,8.28,5.92,16.58,8.77,24.9,5.6,16.34,10.95,32.79,15.71,49.39,4.75,16.52,8.84,33.24,11.9,50.16,1.57,8.69,2.86,17.43,3.82,26.21,.9,8.19,1.45,16.49,4.72,24.12,1.22,2.85,5.33,1.66,6.13-.8,2.62-8.09,1.65-16.86,.67-25.18s-2.31-17.1-3.87-25.58c-3.22-17.52-7.57-34.82-12.61-51.9-4.99-16.9-10.75-33.53-16.91-50.04-3.08-8.26-6.25-16.5-9.45-24.71-1.52-3.89-3.01-7.78-4.67-11.61s-2.94-8.42-5.95-11.46c-2.08-2.1-5.45-.45-5.59,2.32h0Z" fill="#fff"/></g><g opacity=".52"><path d="M2699.81,1491.13c15.51,22.76,27.35,47.97,34.56,74.57,3.61,13.31,6.16,26.92,7.49,40.65,.63,6.48,1.02,13.01,1.4,19.51,.41,6.86-.03,13.82,1.14,20.59,.65,3.79,6.48,3.47,7.35,0,1.73-6.9,1.3-14.36,1.13-21.44-.15-6.68-.9-13.29-1.82-19.91-1.97-14.03-5.12-27.9-9.4-41.41-8.52-26.85-21.13-52.2-37.77-74.94-1.76-2.41-5.81-.16-4.08,2.38h0Z" fill="#fff"/></g><path d="M2948.77,1764.03c26.85-26.49,51.64-54.97,75.74-83.98,11.96-14.39,23.74-28.92,35.36-43.59,5.91-7.46,11.77-14.95,17.59-22.48,2.6-3.36,5.22-6.71,7.73-10.15,2.76-3.79,6.24-7.57,7.47-12.16,.9-3.37-2.88-6.38-5.93-4.56-4.08,2.43-6.76,6.76-9.69,10.42-2.66,3.32-5.22,6.71-7.81,10.08-5.92,7.69-11.89,15.34-17.9,22.96-11.4,14.44-22.97,28.75-34.69,42.93-23.89,28.88-48.46,57.19-72.17,86.22-2.43,2.98,1.46,7.12,4.31,4.31h0Z" fill="#fff"/><path d="M3110.31,1646.31c17.79-15.57,35.53-31.17,53.04-47.05l25.88-23.47c4.19-3.8,8.39-7.58,12.57-11.4s9.83-8.05,12.13-13.31c1.29-2.96-.89-7.34-4.65-6.04-5.02,1.73-9.19,6.01-13.04,9.57-4.39,4.07-8.73,8.19-13.08,12.3l-26.12,24.63c-17.41,16.42-34.56,33.1-51.69,49.82-3.26,3.18,1.59,7.9,4.96,4.96h0Z" fill="#fff"/><path d="M2903.51,1814.86c32.18-9.45,65.21-15.82,98.41-20.53,33.2-4.71,66.89-7.06,100.42-7.06,9.17,0,18.33,.3,27.49,.54s19.23,.95,28.65-1.06c4.71-1,3.8-7.25,0-8.67-7.9-2.96-16.48-3.41-24.86-3.9s-17.06-.55-25.59-.53c-17.07,.04-34.14,.72-51.16,2.04-33.49,2.6-67.22,7.68-99.75,16.08-18.65,4.82-37.18,10.3-55.47,16.32-4.26,1.4-2.5,8.04,1.86,6.76h0Z" fill="#fff"/><path d="M3078.52,1700.3c31.74-1.24,63.72,2.96,95.23,6.27,15.74,1.65,31.47,3.3,47.21,4.95,7.86,.82,15.73,1.6,23.6,2.37s17.39,3.32,24.84,.67c3.67-1.31,4.73-6.36,1.11-8.5-6.56-3.87-15.59-3.32-23-4.01-8.19-.76-16.39-1.52-24.59-2.22-16.06-1.36-32.13-2.72-48.19-4.09-32.19-2.73-63.97-4.87-96.21-1.39-3.71,.4-3.9,6.1,0,5.94h0Z" fill="#fff"/><path d="M3211.21,1622.38c14.62-.92,29.13,.18,43.55,2.68,7.11,1.24,14.15,2.93,21.05,5.06,6.2,1.91,13.64,6.42,20.15,4.9,3.17-.74,5-4.96,3.14-7.72-4.05-6.01-13.34-7.42-20-9.11-7.51-1.91-15.15-3.26-22.84-4.19-15.29-1.85-30.79-.84-45.96,1.64-3.8,.62-2.93,6.98,.91,6.74h0Z" fill="#fff"/></g><path d="M2665.98,651.3l-.22-.85-2.76,21.12c3.31-4.58,5.57-11.44,5.32-17.02l-1.09-8.13c-.95-3.98-2.77-7.45-5.47-10.4-2.16-3.33-5.02-5.96-8.58-7.88l-7.31-3.08c-4.07-1.27-8.13-1.46-12.2-.55-4.07,.18-7.86,1.39-11.37,3.63l-6.19,4.78c-2.98,2.77-5.09,6.05-6.32,9.84-1.91,3.64-2.79,7.57-2.63,11.78l1.09,8.13c.95,3.98,2.77,7.45,5.47,10.4,2.16,3.33,5.02,5.96,8.58,7.88,5.38,2.84,10.89,4.13,17.03,4.19l-19.38-8.03,.53,.66,5.51,4.26c3.12,1.99,6.5,3.07,10.12,3.23,2.41,.65,4.82,.65,7.24,0,3.62-.16,7-1.24,10.12-3.23,3.94-2.54,7.23-5.83,9.77-9.77,3.8-5.89,4.43-14.35,2.74-20.98h0Z" fill="#fff"/><path d="M3060.37,811.63c11.45,0,11.47-17.8,0-17.8s-11.47,17.8,0,17.8h0Z" fill="#fff"/><path d="M2987.77,597.34c8.74,0,17.91-3.8,24.09-9.98,3.32-3.09,5.67-6.74,7.04-10.96,2.13-4.06,3.11-8.44,2.93-13.13-.39-8.81-3.29-17.95-9.98-24.09-6.67-6.12-14.86-9.98-24.09-9.98-8.74,0-17.91,3.8-24.09,9.98-3.32,3.09-5.67,6.74-7.04,10.96-2.13,4.06-3.11,8.44-2.93,13.13,.39,8.81,3.29,17.95,9.98,24.09,6.67,6.12,14.86,9.98,24.09,9.98h0Z" fill="#fff"/><path d="M3194.21,994.17c9.71,0,19.02-8.54,18.57-18.57-.45-10.06-8.16-18.57-18.57-18.57-9.71,0-19.02,8.54-18.57,18.57,.45,10.06,8.16,18.57,18.57,18.57h0Z" fill="#fff"/><path d="M1050.61,1602.01c3.79,.14,7.33-.65,10.61-2.37,3.41-1.11,6.37-3.01,8.86-5.69,2.69-2.49,4.58-5.45,5.69-8.86,1.72-3.28,2.51-6.82,2.37-10.61l-.98-7.32c-1.31-4.66-3.67-8.72-7.08-12.15l-5.57-4.31c-4.3-2.49-8.93-3.74-13.9-3.76-3.79-.14-7.33,.65-10.61,2.37-3.41,1.11-6.37,3.01-8.86,5.69-2.69,2.49-4.58,5.45-5.69,8.86-1.72,3.28-2.51,6.82-2.37,10.61l.98,7.32c1.31,4.66,3.67,8.72,7.08,12.15l5.57,4.31c4.3,2.49,8.93,3.74,13.9,3.76h0Z" fill="#fff"/><path d="M362.18,1544.42c0-2.29,.06-4.58,0-6.86-.07-2.71-.48-5.28-1.88-7.67-1.24-2.13-3-3.35-4.94-4.74-2.75-1.96-7.74-1.96-10.49,0-1.94,1.39-3.69,2.61-4.94,4.74-1.39,2.38-1.81,4.96-1.88,7.67-.06,2.28,0,4.58,0,6.86,0,6.31,5.55,12.35,12.06,12.06,6.53-.29,12.06-5.3,12.06-12.06h0Z" fill="#fff"/></svg>